<svg xmlns="http://www.w3.org/2000/svg" width="455.954" height="60.573" viewBox="0 0 116.808 13.354"><defs><path id="a" d="M-3.89-4.12h20.47v23.179H-3.89z"/></defs><path stroke-linecap="round" stroke-linejoin="round" stroke-width=".386" d="M11.523 8.617v.776l-.577.583m-1.152-.583a1.729 1.747 0 103.457 0 1.729 1.747 0 00-3.457 0zm-2.277.001h-.776l-.582.576m.582 1.153a1.747 1.729 0 110-3.458 1.747 1.729 0 010 3.458zm-5.578-1.73h.776l.582-.576m-.582-1.152a1.747 1.729 0 110 3.457 1.747 1.729 0 010-3.457z" fill="none" stroke="currentColor" transform="matrix(1.28621 0 0 1.17239 -.053 0)"/><path stroke-linecap="round" stroke-linejoin="round" stroke-width=".614" d="M6.731.927v1.235l.917.926m1.833-.926a2.75 2.778 0 11-5.5 0 2.75 2.778 0 015.5 0z" fill="none" stroke="currentColor" transform="matrix(1.28621 0 0 1.17239 -.053 0)"/><path d="M.787 13.768h3.308v.668H.787zm6.164 0h3.308v.668H6.95zm6.163 0h3.308v.668h-3.308zM5.802 6.722h5.605v.668H5.802z"/><text style="line-height:1.25" x="22.25" y="10.227" font-weight="400" font-size="9.522" font-family="sans-serif" stroke-width=".238"><tspan x="22.25" y="10.227"><tspan font-weight="700">Local Time</tspan> Laravel</tspan></text></svg>