<svg xmlns="http://www.w3.org/2000/svg" width="399.999" height="51.663" viewBox="0 0 102.473 11.39"><text x="16.242" y="9.298" font-family="sans-serif" font-size="9.47" stroke-width=".111" style="line-height:1.25" transform="scale(1.0203 .9801)"><tspan x="16.242" y="9.298" font-family="FreeSans" font-weight="bold" stroke-width=".067">Local Time</tspan>Laravel</text><path stroke-linecap="round" stroke-linejoin="round" stroke-width=".386" d="M11.523 8.617v.776l-.577.583m-1.152-.583a1.729 1.747 0 103.457 0 1.729 1.747 0 00-3.457 0zM7.517 9.394h-.776l-.582.576m.582 1.153a1.747 1.729 0 110-3.458 1.747 1.729 0 010 3.458zM1.163 9.393h.776l.582-.576m-.582-1.152a1.747 1.729 0 110 3.457 1.747 1.729 0 010-3.457z" fill="none" stroke="currentColor"/><path stroke-linecap="round" stroke-linejoin="round" stroke-width=".614" d="M6.731.927v1.235l.917.926m1.833-.926a2.75 2.778 0 11-5.5 0 2.75 2.778 0 015.5 0z" fill="none" stroke="currentColor"/><path d="M.653 11.743h2.572v.57H.653zm4.792 0h2.572v.57H5.445zm4.792 0h2.572v.57h-2.572zm-5.685-6.01H8.91v.57H4.552z"/></svg>