<svg xmlns="http://www.w3.org/2000/svg" width="360.911" height="48.402" viewBox="0 0 92.459 10.672"><text x="16.137" y="8.437" font-family="sans-serif" font-size="8.123" stroke-width=".095" style="line-height:1.25" transform="scale(1.0203 .98011)"><tspan x="16.137" y="8.437" font-family="FreeSans" font-weight="bold">Local Time </tspan>Laravel</text><text style="line-height:1.25" x="23.823" y="31.631" font-weight="400" font-size="10.247" font-family="sans-serif" stroke-width=".256"/><g style="mix-blend-mode:normal"><path d="M6.652-.864a2.852 2.852 0 00-2.848 2.849 2.852 2.852 0 002.848 2.848 2.852 2.852 0 002.849-2.848 2.852 2.852 0 00-2.849-2.85zm0 5.175a2.33 2.33 0 01-2.326-2.326A2.33 2.33 0 016.652-.342 2.329 2.329 0 018.98 1.985 2.329 2.329 0 016.652 4.31z"/><path d="M7.395 1.448l-.47.236V.442a.261.261 0 00-.521 0v1.63c0 .022.004.045.01.066a.261.261 0 00.375.2l.841-.424a.261.261 0 10-.235-.466zM6.586 6.516c-1.093 0-1.983.889-1.983 1.982s.89 1.982 1.983 1.982 1.982-.89 1.982-1.982c0-1.093-.89-1.982-1.982-1.982zm0 3.442c-.805 0-1.46-.655-1.46-1.46 0-.805.655-1.46 1.46-1.46.805 0 1.46.655 1.46 1.46 0 .805-.655 1.46-1.46 1.46zM1.982 6.628C.889 6.628 0 7.518 0 8.61c0 1.093.89 1.982 1.982 1.982 1.093 0 1.982-.889 1.982-1.982s-.889-1.982-1.982-1.982zm0 3.442c-.805 0-1.46-.655-1.46-1.46 0-.805.655-1.46 1.46-1.46.805 0 1.46.655 1.46 1.46 0 .805-.655 1.46-1.46 1.46zM11.19 6.628c-1.094 0-1.983.89-1.983 1.982 0 1.093.89 1.982 1.982 1.982 1.093 0 1.982-.889 1.982-1.982a1.984 1.984 0 00-1.982-1.982zm0 3.442c-.806 0-1.46-.655-1.46-1.46 0-.805.654-1.46 1.46-1.46.804 0 1.46.655 1.46 1.46 0 .805-.656 1.46-1.46 1.46z"/><path d="M7.021 8.378l-.259-.085v-.601a.261.261 0 00-.522 0v.762a.26.26 0 00.047.149c.03.06.082.11.152.133l.419.138a.261.261 0 00.164-.496zM1.978 7.421a.261.261 0 00-.26.261v.762l.002.027-.212.318a.261.261 0 10.434.29l.245-.367a.26.26 0 00.04-.19.253.253 0 00.012-.078v-.762a.261.261 0 00-.26-.261zM11.167 7.421a.261.261 0 00-.26.261v1.4a.261.261 0 10.522 0v-1.4a.261.261 0 00-.262-.261zM8.237 5.747a.261.261 0 100-.522h-3.17a.261.261 0 000 .522zM3.085 11.013H.867a.261.261 0 000 .523h2.218a.261.261 0 000-.523zM7.745 11.013H5.527a.261.261 0 100 .523h2.218a.261.261 0 000-.523zM12.225 11.013h-2.218a.261.261 0 100 .523h2.218a.261.261 0 000-.523z"/></g></svg>