<svg xmlns="http://www.w3.org/2000/svg" width="661.64" height="83.283" viewBox="0 0 169.501 18.362"><text x="26.181" y="15.625" font-family="sans-serif" font-size="15.263" stroke-width=".179" style="line-height:1.25" transform="scale(1.0203 .98011)"><tspan x="26.181" y="15.625" font-family="FreeSans" font-weight="bold">Local Time </tspan>Laravel</text><text style="line-height:1.25" x="32.713" y="37.698" font-weight="400" font-size="10.247" font-family="sans-serif" stroke-width=".256"/><path stroke-linecap="round" stroke-linejoin="round" stroke-width="2" d="M12 8v4l3 3m6-3a9 9 0 11-18 0 9 9 0 0118 0z" transform="matrix(-.30961 0 0 .3128 22.29 12.013)" fill="none" stroke="currentColor"/><path stroke-linecap="round" stroke-linejoin="round" stroke-width="2" d="M12 8v4l3 3m6-3a9 9 0 11-18 0 9 9 0 0118 0z" transform="matrix(0 .30961 -.3128 0 14.621 12.052)" fill="none" stroke="currentColor"/><path stroke-linecap="round" stroke-linejoin="round" stroke-width="2" d="M12 8v4l3 3m6-3a9 9 0 11-18 0 9 9 0 0118 0z" transform="matrix(0 -.30961 .3128 0 -.626 19.482)" fill="none" stroke="currentColor"/><path stroke-linecap="round" stroke-linejoin="round" stroke-width="2" d="M12 8v4l3 3m6-3a9 9 0 11-18 0 9 9 0 0118 0z" transform="matrix(.49249 0 0 .49757 4.942 -1.86)" fill="none" stroke="currentColor"/><path d="M1.055 19.554H5.2v.918H1.055zM8.779 19.554h4.146v.918H8.779zM16.503 19.554h4.146v.918h-4.146zM7.34 9.867h7.024v.918H7.34z"/></svg>